<?xml version="1.0" encoding="UTF-8" standalone="no"?>
<!-- Generator: Adobe Illustrator 22.0.1, SVG Export Plug-In . SVG Version: 6.00 Build 0)  -->

<svg
   version="1.1"
   id="Layer_1"
   x="0px"
   y="0px"
   viewBox="0 0 100 100"
   style="enable-background:new 0 0 100 100;"
   xml:space="preserve"
   sodipodi:docname="Praveen-Minimal-Outline-Chat.svg"
   inkscape:version="1.1.2 (0a00cf5339, 2022-02-04)"
   xmlns:inkscape="http://www.inkscape.org/namespaces/inkscape"
   xmlns:sodipodi="http://sodipodi.sourceforge.net/DTD/sodipodi-0.dtd"
   xmlns="http://www.w3.org/2000/svg"
   xmlns:svg="http://www.w3.org/2000/svg"><defs
   id="defs194" /><sodipodi:namedview
   id="namedview192"
   pagecolor="#ffffff"
   bordercolor="#666666"
   borderopacity="1.0"
   inkscape:pageshadow="2"
   inkscape:pageopacity="0.0"
   inkscape:pagecheckerboard="0"
   showgrid="false"
   inkscape:zoom="14.37"
   inkscape:cx="27.10508"
   inkscape:cy="46.242171"
   inkscape:window-width="2880"
   inkscape:window-height="1721"
   inkscape:window-x="0"
   inkscape:window-y="43"
   inkscape:window-maximized="1"
   inkscape:current-layer="Layer_1" />
<g
   id="g189">
	<path
   d="M33.1,75.9c0.8,0,1.6,0.4,2.2,1l9.5,10.7C46.1,89.1,48,90,50,90s3.9-0.9,5.2-2.3l9.5-10.7c0.6-0.6,1.4-1,2.2-1   c11.1,0,20.1-9,20.1-20.1V30.1C87,19,78,10,66.9,10H33.1C22,10,13,19,13,30.1v25.8C13,66.9,22,75.9,33.1,75.9z M17,30.1   C17,21.2,24.2,14,33.1,14h33.8C75.8,14,83,21.2,83,30.1v25.8c0,8.9-7.2,16.1-16.1,16.1c-2,0-3.9,0.9-5.2,2.3L52.2,85v0   c-1.1,1.3-3.3,1.3-4.4,0l-9.5-10.7c-1.3-1.5-3.2-2.3-5.2-2.3c-8.9,0-16.1-7.2-16.1-16.1V30.1z"
   id="path187" />
</g>
<path
   style="fill:#ffdd55;stroke-width:0.0695894"
   d="M 49.025748,85.77016 C 48.81524,85.69281 48.517745,85.543027 48.364649,85.4373 48.211552,85.331566 45.908762,82.794949 43.247338,79.800367 40.585914,76.805786 38.221614,74.165315 37.993337,73.932656 37.76506,73.699996 37.299349,73.324728 36.958422,73.098727 35.79923,72.330295 34.715587,72.032793 32.811413,71.960214 c -3.380389,-0.128848 -6.253058,-1.060025 -8.872652,-2.876076 -1.616672,-1.12077 -3.11022,-2.654551 -4.243604,-4.357921 -1.306663,-1.96379 -2.165575,-4.248049 -2.516434,-6.692399 -0.12266,-0.85454 -0.129315,-1.631478 -0.129315,-15.097144 0,-15.857918 -0.0332,-14.721636 0.490334,-16.781023 1.497288,-5.889767 6.25168,-10.488754 12.140147,-11.743327 1.74016,-0.370752 0.851041,-0.355261 20.3897,-0.355261 19.51997,0 18.483116,-0.01796 20.219005,0.350312 5.860882,1.243411 10.578043,5.747006 12.133615,11.584274 0.117296,0.440153 0.282845,1.207377 0.367886,1.704941 l 0.15462,0.904663 0.02461,13.674321 c 0.0249,13.833401 0.0105,14.857815 -0.228497,16.2559 -0.618376,3.617417 -2.337692,6.75447 -5.078562,9.266311 -2.42049,2.218233 -5.586655,3.663 -8.873123,4.048935 -0.363605,0.0427 -1.209116,0.106164 -1.878914,0.141036 -1.307256,0.06806 -1.968742,0.197924 -2.736853,0.537308 -0.647916,0.286278 -1.332978,0.708551 -1.84701,1.1385 -0.253753,0.212247 -2.488528,2.670493 -4.966164,5.46277 -5.813175,6.551397 -5.52198,6.24002 -6.093331,6.515684 -0.413841,0.199673 -0.545271,0.227592 -1.162488,0.246945 -0.563882,0.01768 -0.768501,-0.0049 -1.078635,-0.118803 z"
   id="path424" /><text
   xml:space="preserve"
   style="font-style:normal;font-weight:normal;font-size:40px;line-height:1.25;font-family:sans-serif;fill:#000000;fill-opacity:1;stroke:none"
   x="34.923859"
   y="39.170456"
   id="text12098"><tspan
     sodipodi:role="line"
     id="tspan12096"
     x="34.923859"
     y="39.170456" /></text><text
   xml:space="preserve"
   style="font-style:normal;font-weight:normal;font-size:40px;line-height:1.25;font-family:sans-serif;fill:#000000;fill-opacity:1;stroke:none"
   x="26.116379"
   y="34.819508"
   id="text16260"><tspan
     sodipodi:role="line"
     id="tspan16258"
     x="26.116379"
     y="34.819508" /></text><text
   xml:space="preserve"
   style="font-style:normal;font-weight:normal;font-size:40px;line-height:1.25;font-family:sans-serif;fill:#000000;fill-opacity:1;stroke:none"
   x="30.35549"
   y="56.016701"
   id="text25424"><tspan
     sodipodi:role="line"
     id="tspan25422"
     x="30.35549"
     y="56.016701" /></text><text
   xml:space="preserve"
   style="font-style:normal;font-weight:normal;font-size:40px;line-height:1.25;font-family:sans-serif;fill:#ffffff;fill-opacity:1;stroke:none;opacity:0"
   x="23.707319"
   y="57.836998"
   id="text27474"><tspan
     sodipodi:role="line"
     id="tspan27472"></tspan></text><text
   xml:space="preserve"
   style="font-style:normal;font-weight:normal;font-size:40px;line-height:1.25;font-family:sans-serif;fill:#000000;fill-opacity:1;stroke:none"
   x="25.596098"
   y="58.912567"
   id="text41633"><tspan
     sodipodi:role="line"
     id="tspan41631"
     x="25.596098"
     y="58.912567" /></text><text
   xml:space="preserve"
   style="font-style:normal;font-weight:normal;font-size:40px;line-height:1.25;font-family:sans-serif;fill:#000000;fill-opacity:1;stroke:none"
   x="21.122419"
   y="58.97097"
   id="text42627"><tspan
     sodipodi:role="line"
     id="tspan42625"
     x="21.122419"
     y="58.97097" /></text><text
   xml:space="preserve"
   style="font-style:normal;font-weight:normal;font-size:40px;line-height:1.25;font-family:sans-serif;fill:#000000;fill-opacity:1;stroke:none"
   x="17.614151"
   y="58.708279"
   id="text43665"><tspan
     sodipodi:role="line"
     id="tspan43663"
     x="17.614151"
     y="58.708279" /></text><text
   xml:space="preserve"
   style="font-style:normal;font-weight:normal;font-size:40px;line-height:1.25;font-family:sans-serif;fill:#000000;fill-opacity:1;stroke:none"
   x="16.95433"
   y="58.858891"
   id="text44725"><tspan
     sodipodi:role="line"
     id="tspan44723"
     x="16.95433"
     y="58.858891" /></text><text
   xml:space="preserve"
   style="font-style:normal;font-weight:normal;font-size:40px;line-height:1.25;font-family:sans-serif;fill:#000000;fill-opacity:1;stroke:none"
   x="15.906501"
   y="58.805244"
   id="text45081"><tspan
     sodipodi:role="line"
     id="tspan45079"
     x="15.906501"
     y="58.805244" /></text><text
   xml:space="preserve"
   style="font-style:normal;font-weight:normal;font-size:40px;line-height:1.25;font-family:sans-serif;fill:#ffffff;fill-opacity:1;stroke:none"
   x="15.571198"
   y="58.894924"
   id="text45503"><tspan
     sodipodi:role="line"
     id="tspan45501"
     x="15.571198"
     y="58.894924">clip</tspan></text></svg>
